<svg xmlns="http://www.w3.org/2000/svg" viewBox="0 0 96 96" role="img" aria-label="热心网友洗护中心 logo">
  <defs>
    <linearGradient id="bg" x1="18" y1="14" x2="78" y2="82" gradientUnits="userSpaceOnUse">
      <stop stop-color="#12202a"/>
      <stop offset="1" stop-color="#071014"/>
    </linearGradient>
    <linearGradient id="drop" x1="42" y1="13" x2="57" y2="43" gradientUnits="userSpaceOnUse">
      <stop stop-color="#6ee7d8"/>
      <stop offset="1" stop-color="#00a79d"/>
    </linearGradient>
    <linearGradient id="car" x1="22" y1="57" x2="74" y2="57" gradientUnits="userSpaceOnUse">
      <stop stop-color="#dffefa"/>
      <stop offset="1" stop-color="#6ee7d8"/>
    </linearGradient>
  </defs>
  <rect x="4" y="4" width="88" height="88" rx="16" fill="url(#bg)"/>
  <rect x="6.5" y="6.5" width="83" height="83" rx="13.5" fill="none" stroke="#ffffff" stroke-opacity=".28" stroke-width="3"/>
  <path d="M50 14c5 8 12 15 12 23 0 7-5.4 12-12 12s-12-5-12-12c0-8 7-15 12-23Z" fill="url(#drop)"/>
  <path d="M50 21c3.2 5.2 7.2 10.3 7.2 15.4 0 4.2-3.1 7.1-7.2 7.1s-7.2-2.9-7.2-7.1c0-5.1 4-10.2 7.2-15.4Z" fill="#bffbf2" opacity=".68"/>
  <path d="M20 61c4-7.5 10.4-12.4 19.4-13.4l15.4-1.7c6.8-.8 13.4 2.2 17.2 7.8l4.6 6.8c1.1 1.6.1 3.8-1.9 4.1l-7.6 1.3c-4.5.8-9.1.8-13.6 0l-33.5-5.9Z" fill="url(#car)"/>
  <path d="M28 56c3.8-3.2 8.1-5 13.1-5.6l10.7-1.2c5.2-.6 10.2 1.4 13.6 5.4l.9 1.1H28Z" fill="#071014" opacity=".82"/>
  <path d="M25 65h47" stroke="#ffffff" stroke-opacity=".75" stroke-width="3" stroke-linecap="round"/>
  <circle cx="33" cy="67" r="6" fill="#071014" stroke="#dffefa" stroke-width="3"/>
  <circle cx="64" cy="67" r="6" fill="#071014" stroke="#dffefa" stroke-width="3"/>
  <path d="M21 76c9.5 3.4 19 5.1 28.4 5.1 10.1 0 18.9-1.9 26.6-5.8" fill="none" stroke="#fbbf24" stroke-width="3" stroke-linecap="round"/>
  <circle cx="24" cy="32" r="3" fill="#fbbf24"/>
  <circle cx="70" cy="27" r="2.6" fill="#6ee7d8"/>
  <circle cx="75" cy="37" r="2.1" fill="#ffffff" opacity=".72"/>
</svg>
